<svg xmlns="http://www.w3.org/2000/svg" xmlns:xlink="http://www.w3.org/1999/xlink" class="card" preserveAspectRatio="none" viewBox="-120 -168 240 336"><defs><symbol id="c" preserveAspectRatio="xMinYMid" viewBox="-600 -600 1200 1200"><path d="M30 150c5 235 55 250 100 350h-260c45-100 95-115 100-350a10 10 0 0 0-20 0 210 210 0 1 1-74-201 10 10 0 0 0 14-14 230 230 0 1 1 220 0 10 10 0 0 0 14 14 210 210 0 1 1-74 201 10 10 0 0 0-20 0Z"/></symbol><symbol id="b" preserveAspectRatio="xMinYMid" viewBox="-500 -500 1000 1000"><path fill="none" stroke="#000" stroke-linecap="square" stroke-miterlimit="1.5" stroke-width="80" d="M-250-320v-140h450L-110-80c10-10 60-40 110-40 200 0 250 120 250 270 0 200-80 310-280 310s-230-160-230-160"/></symbol><path id="a" d="M-52-100H52v200H-52z"/></defs><rect width="239" height="335" x="-120" y="-168" fill="#fff" stroke="#000" rx="12" ry="12"/><use xlink:href="#a" width="104" height="200" fill="#FFC" stroke="#88f"/><use xlink:href="#b" width="70" height="70" x="-122" y="-156"/><use xlink:href="#c" width="58.6" height="58.6" x="-116" y="-81"/><use xlink:href="#c" width="40" height="40" x="-20" y="-98"/><use xlink:href="#c" width="40" height="40" x="-20" y="-20"/><g transform="rotate(180)"><use xlink:href="#b" width="70" height="70" x="-122" y="-156"/><use xlink:href="#c" width="58.6" height="58.6" x="-116" y="-81"/><use xlink:href="#c" width="40" height="40" x="-20" y="-98"/></g></svg>