<svg xmlns="http://www.w3.org/2000/svg" xmlns:xlink="http://www.w3.org/1999/xlink" class="card" preserveAspectRatio="none" viewBox="-120 -168 240 336"><defs><symbol id="c" preserveAspectRatio="xMinYMid" viewBox="-600 -600 1200 1200"><path fill="red" d="M0-300c0-100 100-200 200-200s200 100 200 250C400 0 0 400 0 500 0 400-400 0-400-250c0-150 100-250 200-250S0-400 0-300Z"/></symbol><symbol id="b" preserveAspectRatio="xMinYMid" viewBox="-500 -500 1000 1000"><path fill="none" stroke="red" stroke-linecap="square" stroke-miterlimit="1.5" stroke-width="80" d="M-250 100a250 250 0 0 1 500 0v110a250 250 0 0 1-500 0v-420A250 250 0 0 1 0-460c150 0 180 60 200 85"/></symbol><path id="a" d="M-52-100H52v200H-52z"/></defs><rect width="239" height="335" x="-120" y="-168" fill="#fff" stroke="#000" rx="12" ry="12"/><use xlink:href="#a" width="104" height="200" fill="#FFC" stroke="#88f"/><use xlink:href="#b" width="70" height="70" x="-122" y="-156"/><use xlink:href="#c" width="58.6" height="58.6" x="-116" y="-81"/><use xlink:href="#c" width="40" height="40" x="-54" y="-98"/><use xlink:href="#c" width="40" height="40" x="14" y="-98"/><use xlink:href="#c" width="40" height="40" x="-54" y="-20"/><use xlink:href="#c" width="40" height="40" x="14" y="-20"/><g transform="rotate(180)"><use xlink:href="#b" width="70" height="70" x="-122" y="-156"/><use xlink:href="#c" width="58.6" height="58.6" x="-116" y="-81"/><use xlink:href="#c" width="40" height="40" x="-54" y="-98"/><use xlink:href="#c" width="40" height="40" x="14" y="-98"/></g></svg>