<svg xmlns="http://www.w3.org/2000/svg" xmlns:xlink="http://www.w3.org/1999/xlink" class="card" preserveAspectRatio="none" viewBox="-120 -168 240 336"><defs><symbol id="c" preserveAspectRatio="xMinYMid" viewBox="-600 -600 1200 1200"><path d="M0-500c100 250 355 400 355 685a150 150 0 0 1-300 0 10 10 0 0 0-20 0c0 200 50 215 95 315h-260c45-100 95-115 95-315a10 10 0 0 0-20 0 150 150 0 0 1-300 0c0-285 255-435 355-685Z"/></symbol><symbol id="b" preserveAspectRatio="xMinYMid" viewBox="-500 -500 1000 1000"><path fill="none" stroke="#000" stroke-linecap="square" stroke-miterlimit="1.5" stroke-width="80" d="M-265-320v-140h530C135-200-90 100-90 460"/></symbol><path id="a" d="M-52-100H52v200H-52z"/></defs><rect width="239" height="335" x="-120" y="-168" fill="#fff" stroke="#000" rx="12" ry="12"/><use xlink:href="#a" width="104" height="200" fill="#FFC" stroke="#88f"/><use xlink:href="#b" width="70" height="70" x="-122" y="-156"/><use xlink:href="#c" width="58.6" height="58.6" x="-116" y="-81"/><use xlink:href="#c" width="40" height="40" x="-55" y="-98"/><use xlink:href="#c" width="40" height="40" x="15" y="-98"/><use xlink:href="#c" width="40" height="40" x="-55" y="-20"/><use xlink:href="#c" width="40" height="40" x="15" y="-20"/><use xlink:href="#c" width="40" height="40" x="-20" y="-59"/><g transform="rotate(180)"><use xlink:href="#b" width="70" height="70" x="-122" y="-156"/><use xlink:href="#c" width="58.6" height="58.6" x="-116" y="-81"/><use xlink:href="#c" width="40" height="40" x="-55" y="-98"/><use xlink:href="#c" width="40" height="40" x="15" y="-98"/></g></svg>