<svg xmlns="http://www.w3.org/2000/svg" xmlns:xlink="http://www.w3.org/1999/xlink" class="card" preserveAspectRatio="none" viewBox="-120 -168 240 336"><defs><symbol id="b" preserveAspectRatio="xMinYMid" viewBox="-500 -500 1000 1000"><path fill="none" stroke="#000" stroke-linecap="square" stroke-miterlimit="1.5" stroke-width="80" d="M-270 460h160m-90-10L0-460l200 910m-90 10h160m-390-330h240"/></symbol><symbol id="a" preserveAspectRatio="xMinYMid" viewBox="-600 -600 1200 1200"><path d="M0-500c100 250 355 400 355 685a150 150 0 0 1-300 0 10 10 0 0 0-20 0c0 200 50 215 95 315h-260c45-100 95-115 95-315a10 10 0 0 0-20 0 150 150 0 0 1-300 0c0-285 255-435 355-685Z"/></symbol></defs><rect width="239" height="335" x="-120" y="-168" fill="#fff" stroke="#000" rx="12" ry="12"/><use xlink:href="#a" width="104" height="104" x="-52" y="-52" stroke="#000" stroke-dasharray="100 100" stroke-linecap="round" stroke-width="100"/><use xlink:href="#a" width="104" height="104" x="-52" y="-52" stroke="#fff" stroke-width="50"/><use xlink:href="#a" width="104" height="104" x="-52" y="-52"/><path fill="#fff" d="m0-25 5 5-5 5-5-5m5-4-4 4 4 4 4-4m2 1 4 4-2 2-1-1-2 2h1l-1 2-1-1 1-1v-1l-2 1H2l2-2-1-1-1 2-1-1 1-1h2l-1-1m3-2-1 1 2 2H6l1 1 1-1m3 0 5 6-5 5-6-5m6-4L7-9l4 4 3-4M0-22l2 2-2 2-2-2m13 8 2 3-2 2-3-2M-6-19l1 1v1l1 2 1-1 2 2-1 1v-1l-1 1 2 2 1-1 2 2v-1l1 1-1 1 2 1-2 3 3-3 1 1-1 1 1 1 1-1 3 3-1 1-1-1v2L7-2 6-1l1 1-1 1-1-2-1 1-2-2h1l2 1 1-1-1-2-1 1-2-2v1l-3-2-1 1 3 2-2 1 1 1 1-1 1 1-1 1-1-1-2 2V0l-2 1 1 1 1-1v1l2-1h5L4 3 3 2 2 3l1 1H2L1 3 0 4l-1-1-1 1-5-4 1-1-1-1-1 1v-2l-1 1-1-1 2-2v1l2-1-1-1 2-2v1l1-1h-1l1-1-1-2v-1l1 1 1-1-2-2-1 1 1 1h-2l1-1-2-2h-2l2-3 2 2 1-1-2-1m3 3h-1l1 1 1-1m5 5L0-8h1L0-7l1 1 1-2v-1m4 4H5l2 2 1-1M-6-16l-1 1 2 1v-1m4 4-1 1v-1l-2 2 1 1 1-1 1 1h1l-1-1 1-1m5 5H4l1 1v-1m2 2L6-2h2M-2-6l-1 1h1m-9-10 6 6-6 5-5-5m5-4-3 4 3 4 4-4m2 2-1 2h1l-1 1 1 1v-1l1 1-2 2 1 1 2-2 1 1 1-1h-1l1-1-1-1v1l-2-2h1m-8-7 3 3-3 2-2-2m6 6-1 1h2m7 6 1 1-2 2-2-2 1-1 1 1"/><use xlink:href="#b" width="70" height="70" x="-122" y="-156"/><use xlink:href="#a" width="58.6" height="58.6" x="-116" y="-81"/><g transform="rotate(180)"><use xlink:href="#b" width="70" height="70" x="-122" y="-156"/><use xlink:href="#a" width="58.6" height="58.6" x="-116" y="-81"/></g></svg>