<svg xmlns="http://www.w3.org/2000/svg" xmlns:xlink="http://www.w3.org/1999/xlink" class="card" preserveAspectRatio="none" viewBox="-120 -168 240 336"><defs><symbol id="h" preserveAspectRatio="xMinYMid" viewBox="-500 -500 1000 1000"><path fill="none" stroke="red" stroke-linecap="square" stroke-miterlimit="1.5" stroke-width="80" d="M-285-460h200m-100 0v920m-100 0h200M85-460h200m-100 20-355 595M85 460h200m-100-20L-10-70"/></symbol><symbol id="a" preserveAspectRatio="xMinYMid" viewBox="-600 -600 1200 1200"><path fill="red" d="M0-300c0-100 100-200 200-200s200 100 200 250C400 0 0 400 0 500 0 400-400 0-400-250c0-150 100-250 200-250S0-400 0-300Z"/></symbol><symbol id="g" preserveAspectRatio="none" viewBox="0 0 1300 2000"><path fill="none" stroke="#44F" stroke-linecap="round" stroke-linejoin="round" stroke-width="3" d="M802 1151c5 11 3 18 1 28m3 3c5 12 4 13 2 23m-1-80c5 12 4 15 1 24m138-964h118m-125 18h118m-125 19h133m-155 18h162m73-25c10-2 20 0 30 5m-52-14c10-2 14-2 24 3m29 12c10-2 10-1 20 4m4-1c10-1 10-2 20 3m-85-57c-5 10 21 16 25 15m25-5c3-2 6-2 10 0m15 4c3-2 6-2 10 0m-63-11c3-3 7-2 10 0m-327 957c2 4 1 7 0 10m-1 18c2 4 1 7 0 10m4 20c2 4 2 7 0 10M445 295c10 0 15 24 35 25 20 0 40-25 45-25m121 0c-10 0-15 25-36 25-19 0-39-25-44-25m-126 0c15 0 23-28 40-30 13-2 35 15 35 15m130 0s-29-16-42-15c-16 2-25 30-40 30 7 0 12 25 12 25m-135-20c3 19 24 33 25 30m40 70c-15 15-22 26-30 40m120-50c5 20 33 44 35 40m-95 60c5-20 25-15 35-5m-76-202a15 20 0 0 1 1 7v0a15 20 0 0 1-11 19m-6 1a15 20 0 0 1-13-20 15 20 0 0 1 1-4m18 23a15 20 0 0 1-4 1 15 20 0 0 1-2 0m139-26a15 20 0 0 1 1 7v0a15 20 0 0 1-10 19m-13-2a15 20 0 0 1-7-17 15 20 0 0 1 1-7m19 26a15 20 0 0 1-5 1 15 20 0 0 1-8-3m185 252-21 15m21 0-25 17m25-2-28 20m26-4-29 21m25-3-28 20m25-3-28 20m26-3-29 19m26-2-28 19m26-3-28 19m26-2-27 18m25-2-27 18m25-2-26 18m25-2-26 18m25-2-26 18m25-3-26 18m25-2-26 18m25 13-25 17m26-33-26 18m25 13-25 17m25-2-25 17m25-2-24 17m25-3-25 17m25-2-24 17m25-2-24 16m24-2-23 16m24-2-23 17m25-2-24 16m25-2-24 16m25-2-23 16m25-2-23 16m25-3-23 16m24-2-23 16m25-2-22 16m24-3-22 16m85-104 29 39m-31-66 28 36m-28-62 26 34m-25-59 24 32m-22-55 23 31m-20-53 21 29m-18-50 21 28m-18-49 21 27m-16-47 19 27m-15-46 19 26m-14-45 19 25m-13-43 18 25m-12-43 18 25m-12-42 18 24m-12-41 18 24m-11-41 17 24m-10-40 17 23m-10-39 17 23m-10-38 17 22m-9-38 17 23m-9-38 16 22m-8-37 16 23m-8-37 16 22m-7-36 16 21m-120 536c2 4 2 7 0 10m-32-13c5 11 3 13 1 22m21-114 29 34m-24-4 33 37m-28-4 24 24m13 138c-7-8-32 5-32 5m-100-136 32 29m-27-5 32 30m-26-5 33 31m-27-5 34 31m-28-5 35 33m-27-6 36 34m-28-6 38 35m-29-7 39 37m-29-8 41 39m-30-8 43 40m-30-8 38 35m-24-2 24 22m233 12-5 8m-5-19-13 22m3-32-13 22m3-32-13 22m4-33-14 22m4-33-14 22m4-33-13 23m4-34-14 22m4-33-14 22m5-34-14 23m5-34-14 22m5-34-14 23m5-35-14 23m5-36-14 24m5-36-14 23m4-39-15 23m7-37-15 24m6-37-14 24m7-38-15 25m6-38-11 19"/><use xlink:href="#a" width="90" height="90" transform="scale(1 .8) rotate(85 -5 1038)"/><use xlink:href="#a" width="90" height="90" transform="matrix(.5 .69282 -.86603 .4 974 653)"/><use xlink:href="#a" width="90" height="90" transform="scale(-1 -.8) rotate(-70 -1310 181)"/><use xlink:href="#a" width="90" height="90" transform="scale(-1 -.8) rotate(-50 -1831 432)"/></symbol><symbol id="f" preserveAspectRatio="none" viewBox="0 0 1300 2000"><path fill="none" stroke="#44F" stroke-linecap="round" stroke-linejoin="round" stroke-width="6" d="M521 0c16 53 66 55 68 100 3 45-59 48-61 3-2-30 33-32 35-2 1 15-21 16-22 1M514 0c-10 55-59 62-57 107s64 42 62-3c-2-31-37-28-36 2 1 15 23 13 22-2M832 0c7 59 65 70 59 116-5 44-74 36-69-9 3-30 43-25 40 5-2 15-27 12-25-3M827 0c-21 55-79 53-85 98-5 45 65 53 70 8 4-30-36-34-40-5-1 15 23 18 25 3m118 53 4-4c16-16 25-39 28-65 29-5 52-13 70-22m-148 85c32-12 51-38 48-89 92-11 108-39 144-62M359 62c12 9 26 17 41 21 3 11 7 25 15 40 4 8 9 15 16 22m45-4c-42-20-41-54-54-86-27 1-58-24-87-55m277 136c12-15 22-34 27-57 11-4 20-11 28-18 7 8 16 15 26 21 2 21 9 40 19 56M666 0c-8 29-21 52-54 56-3 40-20 65-45 81m183 3c-18-18-29-43-28-78-32-8-43-32-48-62m391 1a728 728 0 0 0-138 234M321 0c60 95 91 153 115 220m-11-29c195-18 355-10 513 15m-502 14c187-17 340-9 491 15m-522-88c211-20 383-11 552 16m-78 930c-49-165-27-351 107-565 58 132 192 272 314 376m-193 542a993 993 0 0 1-178-233M0 674c108-87 238-145 369-202m395 80c-77 322-24 630 95 886M511 744l168-164m-66 29L502 718m17 53 228-223M558 950h173m-180-41 183-179m5-39L545 880m11 59 175-171m-1 157H571M385 505c-10 0-19 29 5 30 19 1 40-45 0-45-45 0-40 74 10 74 65 0 135-9 150-59 55 130 150 80 150 45 0-28-35-30-40-15-7 21 10 30 25 15M560 970l10-10 20 20 20-20 20 20 20-20 20 20 20-20 20 20 20-20 2 2M589 702a43 43 0 0 1 5 4 43 43 0 0 1-1 60 43 43 0 0 1-60 0 43 43 0 0 1-4-5m182-177a43 43 0 0 1 5 4 43 43 0 0 1-1 60 43 43 0 0 1-60-1 43 43 0 0 1-4-5m-1 1a43 43 0 0 1 5 4 43 43 0 0 1-1 60 43 43 0 0 1-60-1 43 43 0 0 1-4-4m-61 60a43 43 0 0 1 4 4 43 43 0 0 1 0 59m0 0a43 43 0 0 1 59 2 43 43 0 0 1 4 4m0-1a43 43 0 0 1-4-3 43 43 0 0 1 1-61 43 43 0 0 1 60 1 43 43 0 0 1 3 4m98-171a43 43 0 0 1-38-12 43 43 0 0 1-4-5m6 128a43 43 0 0 1-4-3 43 43 0 0 1 1-60 43 43 0 0 1 32-12m-90 135a43 43 0 0 1-4-4 43 43 0 0 1 1-60 43 43 0 0 1 60 1 43 43 0 0 1 3 4m-21-149 25-25m-269 49c17-2 33-5 49-10 17-5 33-13 46-24 20 29 43 48 67 56m335-86c49 16 96 7 141-58 7 33 26 59 45 85 20-30 33-60 40-90 28 55 77 71 125 87m0 317c-111-99-228-226-281-339M893 717a133 176 0 0 1 27 107v0a133 176 0 0 1-64 151m3 25c15-10 29-23 40-38 27-36 44-85 44-138 0-51-15-98-40-133m-25 401c37-17 69-45 93-76 40-54 62-121 62-192a318 318 0 0 0-89-223m-21 495c26-18 50-41 68-65 44-58 67-131 67-207a344 344 0 0 0-101-246m44 481 10-13c47-63 72-141 72-222a369 369 0 0 0-113-268m193-158-12 57c-4 16-10 32-18 48-9-14-15-28-18-43l-12-58-34 49c-18 26-35 40-50 48m242 7c-27-12-48-27-64-57l-26-52M986 530c52-40 73-94 97-146m117-49a25 25 0 0 0-11 3c-36 17-52 17-88 0a25 25 0 1 0-22 44c44 23 88 23 132 0a25 25 0 0 0-11-47v0m2 51c26 73 57 131 98 158m0 744c-63 54-136 97-214 136m214-247c-81 69-177 124-276 177m276-217c-83 75-186 135-295 193m87-300h208m-140-101 40 49-40 40m0-89v0m90 16-44-54 34-38m-43-41-37 41m72 177 18-18m-120-271v289m30-256v256m58-197-51 57 73 90-50 50m60-168v168m20-150v150m-141-340h171m-292 394a15 15 0 0 0-15 19c9 39 9 54 0 82a15 15 0 1 0 28 9c11-32 11-57 1-98a15 15 0 0 0-14-12v0m11 115 71 71c4-21 5-45-20-90 29-10 53-26 70-50-17-7-40-13-70-20 23-37 25-69 20-100-21 28-41 58-74 77m285-49c-45 38-107 94-176 109m-133-47c-28-2-117-8-142-8-55 0-79 28-10 28m250-110-20-15c-19 26-35 49-57 65l-4-1h-8m-101 116c-40 0-60 5-80 5-30 0-40 25-10 25h83m-3-60c-5 0-60 5-80 5s-45 25 0 30m75-60h-45c-40 0-75 25-35 30m188 42-83 28c-15 5-25 10-36 16-27 15-34-11-19-21s25-10 25-10m144-97 3-2c12-7 23-15 32-24l-8 16-17 27 31 7 34 8c-10 8-22 14-36 19l-26 8 13 24 8 16-23-24-9-6m75-874 3 36m96-39v35m-115-230c0 85 40 215-25 215-35 0-38-49-13-47 18 2 18 22 8 27 26-21 28-52 0-95 20-14 5-75 5-95 0-45 60-35 60-10s-30 25-35 5v0m7 191c10 9 32 24 53 24 30 0 75-25 75-50 0-12-4-24-9-33m-122-73c3-2 8-4 16-4 25 0 35 15 40 15 18 0 24 24-5 25-20 0-30-20-30-20 6 14 17 29 5 40 35 7 45 30 45 60m-40-118v-12m29 49c-6 38-23 36-28-6m-21-33c2-12 8-19 20-25 21-11 29 21 30 41m-10-36c40-34 38 72 35 80-8 20-26 27-30-6m22-71c24-21 40 17 36 51-7 44-28 62-31 31m24-77c22-14 37 22 31 54-8 46-31 49-27 7m28-24h2c11 0 20 13 20 30v0c0 17-9 30-20 30-6 0-11-4-15-11m80-19a23 25 0 0 1-22 25 23 25 0 0 1-23-25 23 25 0 0 1 23-25 23 25 0 0 1 22 25v0m-342-45h112m-151 85h161m75-20c14 8 26 18 30 35M918 855a29 30 0 0 1-2 0 29 30 0 0 1-29-30 29 30 0 0 1 29-30 29 30 0 0 1 2 0m0-2a29 30 0 0 1-7 1 29 30 0 0 1-29-30 29 30 0 0 1 20-28m-1 179a29 30 0 0 1-20-28 29 30 0 0 1 29-30 29 30 0 0 1 7 1m-50 106a29 30 0 0 1-11-23 29 30 0 0 1 29-30 29 30 0 0 1 16 4m-44 56 1 2m16-191c2 6 6 11 11 15a43 43 0 0 0 0 56 43 43 0 0 0-14 48c-6 2-11 5-15 10m41-187-8 4M735 485c0-35-35-35-35 5s55 20 55-15c0-50-75-40-75 10 0 64 114 78 179 73s130-48 130-113c1-91-65-128-81-213M707 530c49 2 68-20 68-66 1-75-65-84-59-251m5 325s0 0 0 0m217-7c23-21 36-55 36-86 1-92-65-129-80-215m34 307c21-22 31-62 31-92 1-92-65-129-79-217m30 318c23-22 34-70 34-101 1-93-65-130-78-219m28 326c23-23 34-75 35-107 0-94-64-130-77-220m29 330c22-24 32-79 33-110 0-94-64-131-76-222m25 335c24-22 35-81 35-113 1-95-63-131-74-224m22 338c26-21 37-81 37-114 1-95-62-131-72-225m20 339c25-21 37-81 37-114 1-95-61-132-71-226m20 340c25-21 36-81 36-114 1-96-61-132-70-227m20 340c24-22 35-81 35-113 1-96-60-132-69-228m20 339c23-23 37-80 34-111-8-95-63-120-68-230m14 338c27-21 42-72 39-108-8-85-63-90-66-230m5 333c34-16 49-62 47-92-4-91-64-81-66-242m26 270c3-19 5-22 4-33-5-67-67-44-58-238m-15 337c-25 35-75 8-100-45m75 46c-22-7-43-25-55-51m116 38c-5 8-13 13-21 16m-38-22c-17-7-32-21-42-42m87 40c-27 1-56-16-72-50m51 29c-14-7-27-20-36-39m30 12c-7-6-13-14-18-24m24 5c-4-5-8-11-11-18m26 3c-4-5-8-11-11-18m30 13c-6-7-11-14-15-23M385 535c49 8 64-29 64-70 0-43-24-85-14-125m-42 223c48 8 69-55 69-97s-27-66-27-126m5 222c23-15 34-52 36-81m-15 79c18-17 27-49 29-75m-6 71c13-18 20-44 21-66m2 58c8-16 12-36 13-53m8 41c4-12 6-25 7-36M435 340s6 80 5 105c-2 39-75 78-75 0 0-50 60-45 60-5s-45 30-45 5 35-20 35 0m10-97c-2 18-9 27-8 40 1 8 8 27 8 52m23-223c-5 14-13 42-13 53 0 15 5 25 5 50 0 40-70 55-70 0 0-45 60-55 60-15s-40 30-40 10 25-20 25-5m22-91c-6 11-12 26-12 38 0 20 5 48 5 48m5-40s15-20 35-20 30 10 40 10c5 0 15-10 15-10v10c-5 0-10 5-15 5s-30-15-35-15m195 15s-35-20-45-20c-15 0-35 10-45 10s-25-5-25-5v5c8 0 20 5 25 5s30-15 45-15m-100 15s10 25 10 30-20 50-20 60-10 35-10 40 15 15 20 15 20-10 30-15c4-2 10 10-30 15m40-35c25 0 29 24 11 31-6 2-16-2-18-9m-53 38-10 20 10-10v-10 0m100 0 5 20-10-15 5-5v0m-105 15 4-6c1-1 16-4 26-14 0 0 0 10 13 10 10 0 17-10 17-10s10 10 20 10l25 5-5-5c-28 7-90-3-100 10v0m30 10c17 17 30 15 45 0M440 295c20 0 30-16 40-16 20 1 25 16 35 16-5 0-15 15-40 15-15 0-15-15-35-15v0m205 0c-20 0-30-16-40-16-20 1-25 16-35 16 5 0 15 15 40 15 15 0 15-15 35-15v0m375-110-25 30 30 25m-49-25h19m-35 25 35-55v55"/></symbol><symbol id="e" preserveAspectRatio="none" viewBox="0 0 1300 2000"><path d="M632 181c-66 0-134 3-207 10l11 29c187-17 340-9 491 15l11-29c-99-16-198-25-306-25Zm441 226-9 18c50 23 105 24 155 3l-8-18c-45 19-93 18-138-3zm-523 98c-12 40-59 53-110 57l12 24c17-1 33-4 49-9 17-5 33-13 46-24 20 29 43 48 67 56L502 717l9 27 168-164c-31 19-90 17-129-75Zm420 51-13 22a344 344 0 0 1 101 245c0 77-23 150-67 208-18 24-42 47-68 65l69 3c0-8 7-15 16-15 3 0 6 2 8 3 33-19 53-49 74-77l-20-15c-19 26-35 49-57 65l-4-1h-8l10-13c47-63 71-141 71-222a369 369 0 0 0-112-268zm77 21 4 6h249v-6zm13 20 4 6h236v-6zm12 19 6 9h222v-9zm17 23 9 12h202v-12zm18 24 12 15h181v-15zm-373 67L551 909l5 30 175-171Zm516 132v168h20V880Zm-680 98-10 10 5 35h171l-4-43-2-2-20 20-20-20-20 20-20-20-20 20-20-20-20 20zm521 89-1 12h184l14-12zm-3 22-3 9h166l11-9zm-6 16-3 6h155l7-6zm218 50c-83 75-186 135-295 193l19 24c99-53 195-108 276-177Z"/></symbol><symbol id="d" preserveAspectRatio="none" viewBox="0 0 1300 2000"><path fill="#44F" d="M603 277a10 17 0 0 0-10 17 10 17 0 0 0 10 16 10 17 0 0 0 10-16 10 17 0 0 0-10-17zm-123 1a10 17 0 0 0-10 17 10 17 0 0 0 10 17 10 17 0 0 0 10-17 10 17 0 0 0-10-17Zm720 22c-16 12-38 20-55 20-16 0-33-9-44-17l1 35c35 17 51 17 87 0 3-2 7-3 11-3zM530 420c-10 10-25 13-26 14l-4 6c9-11 58-5 89-8l-9-2c-10 0-20-10-20-10s-7 10-17 10c-13 0-13-10-13-10Zm59 12 16 3-5-5-11 2zm586 28c-7 30-20 60-40 90-19-26-38-52-45-85-23 34-47 52-71 60 25 54 64 110 110 165h171V547c-48-16-97-32-125-87Zm-189 68-16 28a369 369 0 0 1 113 268 369 369 0 0 1-82 235h8l4 1c22-16 38-39 57-65l20 15 2 20h38l1-289a878 878 0 0 1-145-213Zm-71 27a5 5 0 0 0-4 3 5 5 0 0 0 2 6 5 5 0 0 0 7-2 5 5 0 0 0-2-7 5 5 0 0 0-3 0zm-118 8a5 5 0 0 0-5 5 5 5 0 0 0 4 5 5 5 0 0 0 6-4 5 5 0 0 0-4-5 5 5 0 0 0-1-1zm96 4a5 5 0 0 0-4 2 5 5 0 0 0 2 7 5 5 0 0 0 7-2 5 5 0 0 0-2-7 5 5 0 0 0-3 0zm-67 2a5 5 0 0 0-5 4 5 5 0 0 0 4 6 5 5 0 0 0 6-4 5 5 0 0 0-4-6 5 5 0 0 0-1 0zm-15 7-21 57 13-13 1 21 6-20 10 18zm109 3a5 5 0 0 0-4 3 5 5 0 0 0 2 7 5 5 0 0 0 7-3 5 5 0 0 0-2-6 5 5 0 0 0-3-1zm-15 3-35 51 16-10-4 20 11-17 5 19zm-168 28v16h12l3-16h-15zm93 51a5 5 0 0 0-5 4 5 5 0 0 0 4 6 5 5 0 0 0 6-4 5 5 0 0 0-4-6 5 5 0 0 0-1 0zm-154 8v17h17v-17h-17zm135 8a5 5 0 0 0-5 4 5 5 0 0 0 4 6 5 5 0 0 0 6-4 5 5 0 0 0-4-6 5 5 0 0 0-1 0zm29 7a5 5 0 0 0-5 4 5 5 0 0 0 4 6 5 5 0 0 0 6-4 5 5 0 0 0-4-6 5 5 0 0 0-1 0zm-16 7-24 55 13-12 1 21 7-20 8 19zm-209 37v17h17v-16l-17-1zm148 52a5 5 0 0 0-5 5 5 5 0 0 0 4 5 5 5 0 0 0 6-4 5 5 0 0 0-4-6 5 5 0 0 0-1 0zm111 2c-11 45-17 87-19 128l1 1c4-5 9-8 15-10a43 43 0 0 1 14-48 43 43 0 0 1 0-56c-5-4-9-9-11-15zm-320 6v16h17v-16h-17zm276 2a5 5 0 0 0-5 5 5 5 0 0 0 4 5 5 5 0 0 0 6-4 5 5 0 0 0-4-6 5 5 0 0 0-1 0zm-85 8a5 5 0 0 0-4 5 5 5 0 0 0 4 5 5 5 0 0 0 6-4 5 5 0 0 0-5-6 5 5 0 0 0-1 0zm31 4a5 5 0 0 0-1 0 5 5 0 0 0-4 4 5 5 0 0 0 4 6 5 5 0 0 0 5-5 5 5 0 0 0-4-5zm37 6a5 5 0 0 0-5 5 5 5 0 0 0 4 5 5 5 0 0 0 6-4 5 5 0 0 0-5-6zm-53 2-17 58 12-13 2 20 5-20 11 17zm83 2a5 5 0 0 0-1 0 5 5 0 0 0-4 4 5 5 0 0 0 4 6 5 5 0 0 0 6-4 5 5 0 0 0-5-6zm-16 8-17 59 12-14 2 20 5-20 11 17zm-37 85a5 5 0 0 0-5 5 5 5 0 0 0 5 5 5 5 0 0 0 5-5 5 5 0 0 0-5-5zm-15 20a5 5 0 0 0-5 5 5 5 0 0 0 5 5 5 5 0 0 0 5-5 5 5 0 0 0-5-5zm30 0a5 5 0 0 0-5 5 5 5 0 0 0 5 5 5 5 0 0 0 5-5 5 5 0 0 0-5-5zm-15 10-10 60 10-15 5 20 3-21 12 16Zm41 85a5 5 0 0 0-5 5 5 5 0 0 0 5 5 5 5 0 0 0 5-5 5 5 0 0 0-5-5zm-70 3a5 5 0 0 0-1 0 5 5 0 0 0-4 6 5 5 0 0 0 5 4 5 5 0 0 0 4-6 5 5 0 0 0-4-4zm539 16c-44 38-106 93-175 108-14 15-33 26-55 33 25 45 24 69 20 90l-71-71a15 15 0 0 1-27-6l-63 21c21 40 47 78 76 116 109-58 212-118 295-193zm-308 154 1-1h-1v1zm-145-154a5 5 0 0 0-5 6 5 5 0 0 0 5 4 5 5 0 0 0 5-5 5 5 0 0 0-5-5zm-68 1a5 5 0 0 0-1 0 5 5 0 0 0-4 6 5 5 0 0 0 6 4 5 5 0 0 0 4-6 5 5 0 0 0-5-4zm38 1a5 5 0 0 0-5 5 5 5 0 0 0 5 5 5 5 0 0 0 5-5 5 5 0 0 0-5-5zm-68 4a5 5 0 0 0-1 0 5 5 0 0 0-4 6 5 5 0 0 0 6 4 5 5 0 0 0 4-5 5 5 0 0 0-5-5zm83 5-4 44 21-2zm-67 3v61l8-17 8 19-1-21 15 13zm153 174-3 18-13-16 6 20-17-10 42 47zm-87 20-4 18-11-18 4 21-17-11 39 50zm118 33a5 5 0 0 0-2 0 5 5 0 0 0-3 7 5 5 0 0 0 7 2 5 5 0 0 0 2-6 5 5 0 0 0-4-3zm-28 12a5 5 0 0 0-2 0 5 5 0 0 0-2 7 5 5 0 0 0 6 2 5 5 0 0 0 3-6 5 5 0 0 0-5-3zm-63 10a5 5 0 0 0-1 0 5 5 0 0 0-1 0 5 5 0 0 0-3 6 5 5 0 0 0 6 3 5 5 0 0 0 3-6 5 5 0 0 0-4-3zm85 2a5 5 0 0 0-2 1 5 5 0 0 0-3 6 5 5 0 0 0 7 3 5 5 0 0 0 3-7 5 5 0 0 0-5-3zm-114 8a5 5 0 0 0-1 0 5 5 0 0 0-3 6 5 5 0 0 0 6 3 5 5 0 0 0 3-6 5 5 0 0 0-5-3zm83 0-2 18-14-15 8 19-19-8 46 44zm-62 14a5 5 0 0 0-2 0 5 5 0 0 0-3 6 5 5 0 0 0 7 3 5 5 0 0 0 3-6 5 5 0 0 0-5-3zm97 36a5 5 0 0 0-3 1 5 5 0 0 0-2 7 5 5 0 0 0 7 2 5 5 0 0 0 2-7 5 5 0 0 0-4-3zm-27 14a5 5 0 0 0-2 1 5 5 0 0 0-2 7 5 5 0 0 0 6 2 5 5 0 0 0 2-7 5 5 0 0 0-4-3zm83 7-2 18-13-16 7 20-18-8 45 44zm-60 4a5 5 0 0 0-3 1 5 5 0 0 0-2 6 5 5 0 0 0 7 2 5 5 0 0 0 2-6 5 5 0 0 0-4-3zm-29 15-4 18-12-17 5 20-17-10 19 24 17 5zm124 31a5 5 0 0 0-2 1 5 5 0 0 0-3 6 5 5 0 0 0 7 3 5 5 0 0 0 2-7 5 5 0 0 0-4-3zm-27 14a5 5 0 0 0-2 1 5 5 0 0 0-2 6 5 5 0 0 0 7 3 5 5 0 0 0 2-7 5 5 0 0 0-5-3zm-70 10a5 5 0 0 0-1 0 5 5 0 0 0-3 2l2 7a5 5 0 0 0 4 0 5 5 0 0 0 3-6 5 5 0 0 0-4-3 5 5 0 0 0-1 0zm93 1a5 5 0 0 0-2 0 5 5 0 0 0-3 7 5 5 0 0 0 7 2 5 5 0 0 0 2-7 5 5 0 0 0-4-2z"/></symbol><symbol id="c" preserveAspectRatio="none" viewBox="0 0 1300 2000"><path fill="red" d="M667 61c-8 7-17 14-28 18-5 22-15 42-27 57-58 1-118 3-182 9-6-7-11-14-15-22-8-15-12-29-15-40-15-4-29-12-41-21 29 49 49 88 65 128 196-17 356-9 514 16 15-38 35-78 79-140-18 9-41 17-70 22a111 111 0 0 1-32 69l-204-14 203 14c-66-10-133-16-203-19-9-16-16-35-18-56-10-6-19-13-26-21Zm423 284a15 15 0 0 0-15 15 15 15 0 0 0 15 15 15 15 0 0 0 15-15 15 15 0 0 0-15-15zm110 0a15 15 0 0 0-15 15 15 15 0 0 0 15 15 15 15 0 0 0 15-15 15 15 0 0 0-15-15zm-55 15a15 15 0 0 0-15 15 15 15 0 0 0 15 15 15 15 0 0 0 15-15 15 15 0 0 0-15-15zM747 548l-17 17 4 5c7 8 17 8 24 1l2-3 4-16zm-200 5c-13 11-29 19-46 24-16 5-32 8-49 10 19 43 36 86 50 131l112-109c-24-8-47-27-67-56zm-45 165h1-1zm191-117-24 23 4 6c7 7 17 7 24 0 8-7 8-18 1-25l-5-4zm50 60c-4 0-8 2-11 5-7 7-7 17 0 25l4 2zm-111 0-24 23 4 5c7 7 17 7 24 0 8-7 8-17 1-25l-5-3zm668 29h-171c52 62 112 122 171 174Zm-616 30c-5 0-9 2-13 5-7 7-7 18 0 25l4 3 24-24-3-4c-3-3-8-5-12-5zm-113 0-24 23 4 5c7 7 17 7 25 0 7-6 7-17 0-24l-5-4zm331 16c-12 4-20 15-20 28 0 17 13 30 29 30h7l-2 1c-16 0-29 13-29 30s13 30 29 30l2 1-8 1c-16 0-29 13-29 30 0 10 6 20 14 25l-10-1c-16 0-29 13-29 30 0 9 4 18 12 23 33-33 52-85 52-140 0-31-6-61-18-88zm-171 32L571 925h159c-3-52-3-104 1-157zm429 5v79l37-41c-12-14-25-26-37-38zm-537 6c-5 0-9 2-13 5-7 7-7 18 0 25l4 3 24-23-3-4c-3-4-8-6-12-6zm-61 59c-5 0-9 2-13 6-7 7-7 17 0 24l5 4 23-24a19 19 0 0 0-15-10zm678 15-34 38 44 54v-83zm30 26v151h30V904l-30-25zm-110 50v89l40-40zm90 84-18 17h18zm50 17h-208c1 25-4 51-22 80 30 7 53 13 70 20l-14 17c68-15 130-71 174-109zm-2 165-48 35 33 44-28 19-14-16 3-2 8 10 23-15-30-36-48 35 31 43-30 18-13-16 3-2 8 10 24-14-28-38-49 33 28 46-30 16-12-17 3-2 7 11 25-13-26-39-51 30 28 46-30 16-12-17 3-2 7 11 25-13-26-39-49 28 8 9 37-21 12 19-3 1-7-11-25 14 26 37 52-28-30-46 31-18 12 19-3 1-7-11-25 14 26 37 52-28-30-46 30-20 13 18-3 1-7-10-24 15 28 35 49-30-31-45 29-21 14 17-3 2-8-10-23 16 30 34 47-32v-1l-33-43 29-22 4 5v-19zm1 25-23 16 24 28v-18l-6-8 3-2 3 4v-19z"/></symbol><symbol id="b" preserveAspectRatio="none" viewBox="0 0 1300 2000"><path fill="#FC4" d="M320 0c61 95 92 153 116 220 187-17 340-9 491 15 21-60 42-111 139-235Zm770 79c-15 0-30 9-30 31 0 20 15 81-5 95 26 40 26 70 4 91 5-7 3-21-12-23-25-2-22 47 13 47 65 0 25-130 25-215 5 20 35 20 35-5 0-13-15-21-30-21zm140 106h-2c0 17-4 33-13 49 4 7 9 11 15 11 11 0 20-13 20-30s-9-30-20-30zm20 30a23 25 0 0 0 23 25 23 25 0 0 0 22-25 23 25 0 0 0-22-25 23 25 0 0 0-23 25zm-50 120a25 25 0 0 0-11 3c-36 17-52 17-88 0a25 25 0 1 0-22 44c28 15 56 20 84 16l-12 57c-4 16-10 32-18 48-9-14-15-28-18-43l-12-58-34 49c-18 26-35 40-50 48-4 5-20 22-29 29h-4l1 2h-1 1c58 131 191 271 313 374v-40c-111-98-228-225-281-339 24-8 48-26 71-60 7 33 26 59 45 85 20-30 33-60 40-90 28 55 77 71 125 87v-3c-16-10-29-22-39-38-27-12-48-27-64-57l-26-52c13-3 27-8 40-15a25 25 0 0 0-11-47zM721 538l-25 25c-3 6-9 12-17 17L511 744l22 81c16-17 16-43 0-59l-4-4 4 4a42 42 0 0 0 61-60l-4-4 4 4a42 42 0 1 0 61-59l-5-4 5 4a42 42 0 1 0 61-59l-5-5 5 5c10 10 24 14 38 12l10-48c-15-3-30-8-43-14zm-6 110a42 42 0 0 0-1 60l3 3-3-3a42 42 0 1 0-61 59l4 4-4-4a42 42 0 1 0-61 60l4 3-4-3a43 43 0 0 0-59-2c7 27 13 55 18 84l183-179c3-31 7-63 13-94-12-1-24 4-32 12zm242-70-13 23a318 318 0 0 1 88 223c1 71-21 138-61 192-24 31-56 59-93 76l45 4c26-18 50-41 68-65 44-58 67-131 67-207a344 344 0 0 0-101-246zm-205 30zm151 83a630 630 0 0 0-44 309c15-10 29-23 40-38 27-36 44-85 44-138 0-51-15-98-40-133zm227 50v289h105l15-18v-67l-44-54 34-38-43-41-37 41v-79ZM571 925l-15 14 4 31 10-10 20 20 20-20 20 20 20-20 20 20 20-20 20 20 20-20 2 2-2-37Zm589 4 40 49-40 40Zm-70 81c-21 28-41 58-74 77a15 15 0 0 0-8-3 15 15 0 0 0-15 19c9 39 9 54 0 82a15 15 0 0 0 26 14l71 71c4-21 5-45-20-90 29-10 53-26 70-50-17-7-40-13-70-20 23-37 25-69 20-100zm-31 72-8 16-17 27 31 7 34 8c-10 8-22 14-36 19l-26 8 13 24 8 16-23-24-9-6c5-21 4-42-2-69l3-2c12-7 23-15 32-24zm241 206c-63 54-136 97-214 136l22 22c69-34 133-73 192-120z"/></symbol><path id="i" d="M-52-100H52v200H-52z"/></defs><rect width="239" height="335" x="-120" y="-168" fill="#fff" stroke="#000" rx="12" ry="12"/><use xlink:href="#b" width="104" height="200" x="-52" y="-100"/><use xlink:href="#b" width="104" height="200" x="-52" y="-100" transform="rotate(180)"/><use xlink:href="#c" width="104" height="200" x="-52" y="-100"/><use xlink:href="#c" width="104" height="200" x="-52" y="-100" transform="rotate(180)"/><use xlink:href="#d" width="104" height="200" x="-52" y="-100"/><use xlink:href="#d" width="104" height="200" x="-52" y="-100" transform="rotate(180)"/><use xlink:href="#e" width="104" height="200" x="-52" y="-100"/><use xlink:href="#e" width="104" height="200" x="-52" y="-100" transform="rotate(180)"/><use xlink:href="#f" width="104" height="200" x="-52" y="-100"/><use xlink:href="#f" width="104" height="200" x="-52" y="-100" transform="rotate(180)"/><use xlink:href="#g" width="104" height="200" x="-52" y="-100"/><use xlink:href="#g" width="104" height="200" x="-52" y="-100" transform="rotate(180)"/><use xlink:href="#h" width="70" height="70" x="-122" y="-156"/><use xlink:href="#a" width="58.6" height="58.6" x="-116" y="-81"/><use xlink:href="#a" width="34.4" height="34.4" x="-56" y="-97"/><g transform="rotate(180)"><use xlink:href="#h" width="70" height="70" x="-122" y="-156"/><use xlink:href="#a" width="58.6" height="58.6" x="-116" y="-81"/><use xlink:href="#a" width="34.4" height="34.4" x="-56" y="-97"/></g><use xlink:href="#i" fill="none" stroke="#44F"/></svg>