<svg xmlns="http://www.w3.org/2000/svg" xmlns:xlink="http://www.w3.org/1999/xlink" class="card" preserveAspectRatio="none" viewBox="-120 -168 240 336"><defs><symbol id="h" preserveAspectRatio="xMinYMid" viewBox="-500 -500 1000 1000"><path fill="none" stroke="red" stroke-linecap="square" stroke-miterlimit="1.5" stroke-width="80" d="M-260 100c300 0 220 360 520 360M-175 0v-285a175 175 0 0 1 350 0v570a175 175 0 0 1-350 0Z"/></symbol><symbol id="a" preserveAspectRatio="xMinYMid" viewBox="-600 -600 1200 1200"><path fill="red" d="M-400 0C-350 0 0-450 0-500 0-450 350 0 400 0 350 0 0 450 0 500 0 450-350 0-400 0Z"/></symbol><symbol id="g" preserveAspectRatio="none" viewBox="0 0 1300 2000"><path fill="none" stroke="#44F" stroke-linecap="round" stroke-linejoin="round" stroke-width="3" d="M1200 695c4 6 7 13 5 20m-1 5c5 6 7 13 5 20m7 3c5 6 7 13 5 20m-26-113c1 15 40 0 35-5M550 455c15-8 31-14 45-10m-50-175c-8 11-24 13-40 15m140-10c17 2 20-2 25-5m-225-45c25 0 49-42 90 0m68 3c12-3 45-50 82-8m-157 4 2 14c0 15-9 27-20 27s-20-12-20-27l2-13m182-5 1 10c0 15-9 28-20 28s-20-13-20-28v-4m139 363 51-12m-222 31 44-2m-128 0 43 2m-129-11 43 5m-133-24 47 11m-134-36 42 13m471 14 49-11m-217 29 42-2m-124 0 41 2m-126-11 42 5m-131-24 46 11m-131-36 41 13m54-26-43-12m125 29-39-8m120 17-41-3m115 6-36-1m191-15-40 7m29-25 39-7m-187 21 35-1m-106-1 36 2m-114-12 39 6m-118-22 41 9m-121-33 38 12m52-27-41-11m113 26-35-6m109 16-37-4m93 6h-24m166-11-33 5m82 78 48-11m-212 28 41-1m-121-1 40 2m-124-11 41 5m-128-23 45 10m-130-35 41 13m49-8-43-11m86 21-43-10m83 18-40-8m122 17-41-4m117 7-37-1m195-16-40 7m18-43 37-7m-181 20 34-1m-103-1 35 2m-113-12 39 6m-116-22 40 9m-119-32 38 11m-48 17-38-13m58-44-28-9m5 75-41-14m61-42-29-10m106 33-41-12m115 27-36-7m111 17-37-4m102 6h-31m134 94 45-6m-48-4 44-5m-59-33-36 2m28-21 40-5m-55-34-33 2m67 85 43-6m-50-14-37 3m22-41 39-4m-47-15-34 2m106-11-34 5m134 24-30 8m-28-55-16 3m83 52-32 8m-25-55-19 4m-552 44 14 5m-6-13 9 3m-2-11 6 2M0 686l165-234M0 651l145-206M0 617l126-179m696-38c10 43 18 92 23 149m-32-29-4-30c-5-39-12-73-21-105m105 203-1-14c-4-57-10-107-20-152m-33-15c10 45 18 95 22 154m-65-54-2-15c-6-43-14-81-24-115m-37-15c12 34 22 72 29 118m42-88c11 42 20 88 25 143"/><use xlink:href="#a" width="100" height="100" stroke="#44F" stroke-linecap="round" stroke-linejoin="round" stroke-width="72" transform="matrix(1 0 0 .8 600 960)"/><use xlink:href="#a" width="100" height="100" stroke="#44F" stroke-linecap="round" stroke-linejoin="round" stroke-width="72" transform="matrix(1 0 0 .8 530 965)"/><use xlink:href="#a" width="100" height="100" stroke="#44F" stroke-linecap="round" stroke-linejoin="round" stroke-width="72" transform="matrix(1 0 0 .8 460 970)"/></symbol><symbol id="f" preserveAspectRatio="none" viewBox="0 0 1300 2000"><path fill="none" stroke="#44F" stroke-linecap="round" stroke-linejoin="round" stroke-width="6" d="M485 934c143 32 266 14 371-22m-371-8c157 36 286 11 397-33M508 680l87 180m161-12-82-169m218 179a229 229 0 0 1 16-257m190 662c-24-245-111-278-206-405l133-160m275 226L660 397M321 619 1 939m320-320a359 359 0 0 1 87 523M166 568c223 86 456 123 742 33m-234 78c67-6 136-19 209-39m-508 21c43 9 88 15 133 19m-371-91c42 17 84 32 127 45m616-56c-264 79-479 46-689-32m647-3a962 962 0 0 1-615-33m586 10a923 923 0 0 1-568-36m539 12a886 886 0 0 1-524-38m285 31c-93-5-181-26-272-58m482 40c-52 11-102 17-150 18m-74 162 102 211m96-8-97-202m-67 1 101 208m32-2-99-206M476 840c160 43 283 17 395-29m-389 61c160 40 288 13 400-33M0 716 503 0M308 278C289 470 187 582 64 625m418 340c59 12 115 17 168 16m-166-37c59 13 114 18 166 17m-167-6c59 12 115 17 167 16m-169 3c59 13 116 18 169 17m0 28c-69 2-132 14-190 32m19-67c60 13 117 18 171 17m0-2c-65 2-126 13-182 28m182 12c-73 2-140 16-200 36m200-46c-71 2-136 15-195 34m195-54c-67 2-129 13-185 30m12-45c17 4 33 7 50 9m0 0-55 13m509-265-1-11c0-28 10-50 20-62m-66 130a169 169 0 0 1 20-169m-41 194c-14-26-23-58-23-93 0-48 16-91 41-120m194 615a516 516 0 0 0-79-235c-35-53-75-90-115-142l99-119m0 1 270 222m-235 333-21-14a238 238 0 0 1-72-328m72 363-16-10a269 269 0 0 1-77-377m49 431-5-4a329 329 0 0 1-84-474m170 278a65 70 0 0 1-61-70 65 70 0 0 1 17-48m59-287c3-16 13-62 34-75 26-16 35-12 62-31 32-22 61 1 20 25-34 21-32 16-47 21 15 35 10 60-10 70m75-82c44-16 68 3 10 22-83 28-71 0-10-22v0m2-29c39-13 59 6 5 24-28 10-45 13-53 12m53 16c42-16 65 3 9 22-80 28-68 0-9-22v0m10 24c38-14 57 6 7 23-72 24-60-4-7-23v0m-4 46c9-9 16-18 17-26m-80 75c15-9 35-23 51-38m-13-25c14 28 34 51 15 106m12 10c13-33 13-59 7-79-5-16-12-28-18-39m-74-240c-15-55-85 15-30 30-55 15 15 85 30 30 15 55 85-15 30-30 55-15-15-85-30-30v0m16 30a16 16 0 0 1-16 16 16 16 0 0 1-16-16 16 16 0 0 1 16-16 16 16 0 0 1 16 16v0m-43-50c-37-73 91-73 54 0m23 23c73-37 73 91 0 54m-23 23c37 73-91 73-54 0m-23-23c-73 37-73-91 0-54m20 27h-45m5 0a5 5 0 0 1-5 5 5 5 0 0 1-5-5 5 5 0 0 1 5-5 5 5 0 0 1 5 5v0m70-30v-45m0 5a5 5 0 0 1-5-5 5 5 0 0 1 5-5 5 5 0 0 1 5 5 5 5 0 0 1-5 5v0m30 70h45m-5 0a5 5 0 0 1 5-5 5 5 0 0 1 5 5 5 5 0 0 1-5 5 5 5 0 0 1-5-5v0m-70 30v45m0-5a5 5 0 0 1 5 5 5 5 0 0 1-5 5 5 5 0 0 1-5-5 5 5 0 0 1 5-5v0m11-81 14-14m5 0a5 5 0 0 1-5 5 5 5 0 0 1-5-5 5 5 0 0 1 5-5 5 5 0 0 1 5 5v0m-19 36 14 14m0 5a5 5 0 0 1-5-5 5 5 0 0 1 5-5 5 5 0 0 1 5 5 5 5 0 0 1-5 5v0m-36-41-14-14m-5 0a5 5 0 0 0 5 5 5 5 0 0 0 5-5 5 5 0 0 0-5-5 5 5 0 0 0-5 5v0m19 36-14 14m0 5a5 5 0 0 0 5-5 5 5 0 0 0-5-5 5 5 0 0 0-5 5 5 5 0 0 0 5 5v0m35 74 4 6m12-15 4 6m-50 24c-32-19-67-27-105-25m105 25c-46-41-92-69-140-20 40 5 55 44 138 21m82-36c17-23 36-41 65-35-4 22-26 34-50 45M661 0c123 169 234 280 247 601M642 25c119 162 218 261 235 550M683 231c47 71 80 144 96 263M679 282a529 529 0 0 1 66 184M0 586 412 0m222 0c12 37 56 163 56 180 0 20-10 60-10 70s0 80-10 120-60 130-90 130-70-35-100-30c-71 11-143-127-130-130 0 0-5 11-10 10-18-3-29-32-35-54m-141 57c-34-39-93-43-154-43 25-11 55-14 70-40 20 13 44 11 70 6m-32 47L345 0M118 323v0m-68-12 5-2c10-4 21-10 30-20 17 7 35 7 53 5M90 90c50 50-7 124 30 149 50 35 76-28 47-46-26-18-48 19-27 27 14 5 20 0 20-10M90 90c56 42 110-27 142 5 36 37-12 74-33 53-22-24 11-53 24-32 8 15-1 20-10 17m-23 87c17-29-18-48-40-70 27 11 55 34 80 10m40-54c-4-40-31-72-53-106m65 89c-8-34-29-62-47-89m84 133-9-48 45-5-5-50 44-5M274 196l-9-46 48-9m-79 112-9-43 46-9m-72 101-9-37 42-9m-68 97-14-43 47-5m-33 48v0m250-226c81-20 122-72 158-127m-54 0c-17 23-34 43-56 58m74-58c-25 37-51 67-93 86M554 0c-31 47-65 87-127 108m244 2c-43-27-70-67-95-110m52 0 11 16M611 0c13 21 26 40 42 56M593 0c20 33 41 63 70 86M340 265c10 55-15 45 0 25m85-90c33-22 65-43 130 0-2-1 2 5 0 4-35-24-79-36-130-4v0m180-5c31-37 60-20 85-10-25-5-60-20-85 15v-5 0m0 0c-10 90 21 96 20 150 0 10-30 5-30 20m-35-45c-21 0-52 34-10 35 7 0 17-10 22-10 39 3-1 5-12 5m-35 40v10l5-5-5-5v0m105 0v10l-5-5 5-5v0m-5 5-30-5c-5 0-10 5-15 5s-15-5-20-5c0 0 5 0 0 0s-20 5-30 5m30 20c5 15 40 15 40 0M435 245c29 10 49-25 75-25 30 0 45 33 50 30m-95-10c22 55 85 0 95 10m125-25c-33-23-65 15-80 20 15 0 65 35 78-14M349 342v-1m2 11-9-2m69 91c-43-10-87-23-131-38m39-71-16-6m29 20-32-11m56 29c-20-5-39-12-59-19m65 32-67-22m74 34-77-24m86 37c-29-8-59-17-88-28m97 41c-33-9-66-19-100-31m111 44c-38-9-76-21-114-35m437 54c-33 5-64 9-94 11m42-54-12 2m23 7-29 3m39 5-44 6m54 3c-20 3-40 6-60 7m70 1c-26 5-51 8-76 10M211 553l15-47m70-66-45 127m81-116-38 129m78-118-33 130m69-121-20 132m44 8c4-44 6-90 11-134m33 140 3-134m41 138-4-134m48 136-16-132m58 132-27-123m73 121-45-132m83 128-50-130m96 124-60-127m106 118-74-123m128 111-98-116M246 366c2 37-2 78-7 121m22-143c1 37-2 77-7 118m22-139c1 33-1 68-5 104m-41-38c1 38-2 78-7 120m-8-99c1 37-2 77-7 118m-8-96c1 34-2 72-6 111m-9-90c1 32-2 67-5 103m-10-82c1 30-1 62-5 95m-10-73c1 26-1 54-3 83m-13-62c2 23 1 47-1 72m-13-50-1 58m-18-32v42m-15-21v28m200-312c1 24 0 50-2 76m809 885c-24-245-111-278-206-405l133-160m9 435-58 43a20 20 0 1 0 28 29l48-55m-35-141-31-22a20 20 0 1 0-24 32l65 40m0 0-60-28a20 20 0 1 0-11 39l64 14m0 0-61-4a20 20 0 1 0 3 40l60-11m0 0-61 16a20 20 0 1 0 16 37l57-29m18 17-47 74a20 20 0 1 0 37 17l29-83m0 0-25 105a20 20 0 1 0 39 5l7-54m53-259c10 35-35 60-45-10-10 70-55 45-45 10-35 10-60-35 10-45-70-10-45-55-10-45-10-35 35-60 45 10 10-70 55-45 45-10 35-10 60 35-10 45 70 10 45 55 10 45v0m125 136c-10-70-55-45-45-10-35-10-60 35 10 45m-45-27c-19-7-37-16-51-29-25-23-41-58-41-115m-18 32c5 44 21 76 46 98 27 25 64 37 104 45m54-53c-7-38-18-73-39-102-18-24-42-42-76-53m8 24c22 9 39 24 51 41 15 20 24 44 31 71M936 865l10 10c25 22 57 35 92 42m-13-24c-26-7-49-17-66-33-6-5-11-11-15-17m77-94a154 154 0 0 1 53 81m29 32c-7-33-16-63-33-89m-40 52a15 15 0 0 1-15 15 15 15 0 0 1-15-15 15 15 0 0 1 15-15 15 15 0 0 1 15 15v0m160 195a15 15 0 0 1-15 15 15 15 0 0 1-15-15 15 15 0 0 1 15-15 15 15 0 0 1 15 15v0m-30 130a15 15 0 0 1-15 15 15 15 0 0 1-15-15 15 15 0 0 1 15-15 15 15 0 0 1 15 15v0m71-24-3 3m40-46-37 43m51-58-14 15m32-36-18 21m-71 58-88 99m177-201-22 26m-83 71-74 85m136-156-2 3m45-52-27 31m-135 131-21 24m62-71-22 25m67-76-13 15m41-46-12 13m60-68-33 37m-137 134-16 18m51-58-22 25m103-117-67 76m118-134-37 41m-109 102-41 47m129-147-75 85m121-138-32 37m-115 108-33 37m125-142-79 90m123-139-30 33m-118 111-26 30m71-81-31 36m81-92-32 36m73-83-28 32m-118 112-21 24m66-75-32 36m81-93-33 38m73-83-26 30m-117 111-18 20m110-125-79 89m119-135-27 31m-114 106-15 18m103-117-74 83m115-131-28 33m-108 99-15 18m55-63-25 28m54-61-15 17m71-80-31 35m-99 90-17 20m47-54-14 16m68-78h0m34-39-34 39m-88 78-21 23m46-52-8 9m94-106-37 41m-85 74-18 21m45-51-1 1m5-6-4 5m44-50-2 2m41-47-6 7m-117 110-14 16m125-142-8 9m-107 100-18 20m122-139-12 13m-106 98-14 16m120-136-4 4m-116 110-9 10m45-51-2 2m42-48-3 4m36-41-4 5m-109 101-15 16m24-27-9 11m13-15-4 4m92-104-24 27m-80 69-21 24m113-130-17 20m-91 81-15 17m33-38-3 4m36-41-12 14m31-36-2 3m29-33-11 12m-101 92-10 12m89-102-65 74m86-98-6 7M974 895l-6 7m93-105-73 82m89-101-2 3M961 887l-3 4m48-54-31 35m78-89-28 31m-76 64-1 1m53-60-38 44m44-51-6 7m43-48-37 41m-68 56h-1m95-108-81 92M264 633 0 898"/></symbol><symbol id="e" preserveAspectRatio="none" viewBox="0 0 1300 2000"><path d="m1026 698-26-21a102 102 0 0 0-19 74zm-92 110a169 169 0 0 1 20-169l-23-19c-25 29-41 72-41 120 0 35 9 67 23 93m-30-193c-73 20-142 33-209 39l82 169-31 6-97-202c88-4 181-20 280-51M595 860l-87-180c-45-4-90-10-133-19-17-15-35-30-54-42 67 17 135 28 206 32l102 211-34-2zm287 11a644 644 0 0 1-397 33l-3-32c160 40 288 13 400-33l10 19zM-1 941l322-323c-52-13-104-30-155-50l-28 21c41 17 83 32 126 44L0 898m319-765-9-48 45-5-5-50 44-5M274 196l-9-46 48-9m-79 112-9-43 46-9m-72 101-9-37 42-9m-68 97-14-43 47-5m464 92 9-27c6-24 8-59 9-86 4 4 7 11 11 17 24 45 43 96 53 164z"/></symbol><symbol id="d" preserveAspectRatio="none" viewBox="0 0 1300 2000"><path fill="#44F" d="m665 218-18 3c-2 4-3 9-3 15 0 13 6 23 13 23s12-10 12-23c0-7-2-14-4-18zm-152 0a13 24 0 0 0-13 24 13 24 0 0 0 13 23 13 24 0 0 0 12-23 13 24 0 0 0-12-24ZM284 393l-4 10c44 15 88 28 131 38l-13-13c-38-9-76-21-114-35zm426 45c-26 5-51 8-76 10l-7 10c30-2 61-6 94-11zM137 589c-23 15-48 27-73 36L0 716v182l264-265c-43-12-85-27-127-44Zm771 12a229 229 0 0 0-16 257l133-161Zm-346 52 100 208 33-2-100-206h-33zm-187 8c43 9 88 15 133 19zm220 16a10 10 0 0 1 10 10 10 10 0 0 1-10 10 10 10 0 0 1-10-10 10 10 0 0 1 10-10zm22 47a10 10 0 0 1 10 10 10 10 0 0 1-10 10 10 10 0 0 1-10-10 10 10 0 0 1 10-10zm23 47a10 10 0 0 1 10 10 10 10 0 0 1-10 10 10 10 0 0 1-10-10 10 10 0 0 1 10-10zm22 46a10 10 0 0 1 10 10 10 10 0 0 1-10 10 10 10 0 0 1-10-10 10 10 0 0 1 10-10zm256 74a8 7 0 0 0-7 8 8 7 0 0 0 7 7 8 7 0 0 0 8-7 8 7 0 0 0-8-8zm17 20-37 9-5 11 12 30-34 18-3 10 18 32-29 24-1 11 25 29-24 34 1 10 32 25-15 37 4 10 36 16-6 41 6 9 39 7 3 40 7 7 47 4-3 26 17-16 2-16-7-8-49-4-3-40-6-7-37-7 5-40-4-7-35-16 15-36-2-8-31-24 23-33v-10l-24-27 29-23 1-10-17-31 33-17 4-9-12-29 33-9 3-1zm-50 37a8 7 0 0 0-7 7 8 7 0 0 0 7 8 8 7 0 0 0 8-8 8 7 0 0 0-8-7zm-19 62a8 7 0 0 0-8 8 8 7 0 0 0 8 7 8 7 0 0 0 7-7 8 7 0 0 0-7-8zm-6 67a8 7 0 0 0-7 8 8 7 0 0 0 7 7 8 7 0 0 0 8-7 8 7 0 0 0-8-8zm10 74a8 7 0 0 0-7 8 8 7 0 0 0 7 7 8 7 0 0 0 8-7 8 7 0 0 0-8-8zm27 70a8 7 0 0 0-7 8 8 7 0 0 0 7 7 8 7 0 0 0 8-7 8 7 0 0 0-8-8zm42 59a8 7 0 0 0-8 8 8 7 0 0 0 8 7 8 7 0 0 0 7-7 8 7 0 0 0-7-8zm58 52a8 7 0 0 0-7 8 8 7 0 0 0 7 7 8 7 0 0 0 8-7 8 7 0 0 0-8-8z"/></symbol><symbol id="c" preserveAspectRatio="none" viewBox="0 0 1300 2000"><path fill="red" d="M412 0 0 586v130L503 0Zm230 26c18 51 48 140 48 154 0 13-4 35-7 51 47 71 80 144 96 263l98 81C860 286 761 187 642 26Zm518 419c-23 0-46 18-28 55 11-3 23 1 28 20 5-19 17-23 28-20 18-37-5-55-28-55Zm-74 71c-48 0-40 93 24 62-3-11 1-23 20-28-19-5-23-17-20-28-9-4-17-6-24-6zm148 0c-7 0-15 2-24 6 3 11-1 23-20 28 19 5 23 17 20 28 64 31 72-62 24-62zm-74 18a16 16 0 0 0-16 16 16 16 0 0 0 16 16 16 16 0 0 0 16-16 16 16 0 0 0-16-16Zm0 46c-5 19-17 23-28 20-36 73 92 73 56 0-11 3-23-1-28-20Zm-278 61c-72 19-141 32-208 38l81 169c40-9 79-22 116-37a230 230 0 0 1 11-170zm-507 20c49 48 85 110 101 179 41 11 81 17 118 20l-86-180c-45-4-90-10-133-19zm725 224a25 25 0 0 0-25 25 25 25 0 0 0 25 25 25 25 0 0 0 25-25 25 25 0 0 0-25-25zm-62 158a71 71 0 0 0-18 47c0 37 27 68 61 70-11-48-26-86-43-117z"/></symbol><symbol id="b" preserveAspectRatio="none" viewBox="0 0 1300 2000"><path fill="#FC4" d="M217 0c22 34 49 66 53 106l-25 36-4-5c6-11 6-26-9-42-32-32-86 37-142-5 50 50-7 124 30 149 25 18 44 11 53-3l4 3-27 38c-26 4-50 6-70-7-15 26-45 29-70 40 61 0 120 4 154 42L412 0H217zm416 0 9 25c119 162 218 261 235 550l31 26C895 279 784 169 661 0h-28zm50 231-4 51a529 529 0 0 1 66 184l34 28a568 568 0 0 0-96-263zM280 403l-11 28c91 32 179 53 272 57-22-10-43-21-61-18-24 4-49-10-69-29-43-10-87-23-131-38zm-11 28c-25 57-60 103-103 137 117 45 236 76 364 83h-3l102 211 96-8c-74 13-155 11-249-14l6 32c160 40 288 13 400-33l-11-28c-46 19-94 34-146 43l-97-202h-4c89-4 183-20 284-51L751 471l-30-24c-33 5-64 9-93 11-8 11-17 22-26 31a765 765 0 0 0-1 0c-7 7-15 11-21 11-12 0-25-5-39-11-93-5-181-26-272-58zm869 68c-22 1-48 40-8 51-55 15 15 85 30 30 15 55 85-15 30-30 55-15-15-85-30-30-4-15-13-21-22-21zm136 105c-23-1-39 16-54 36l15 10c24-11 46-23 50-45l-11-1zm-221 25c-17 0-35 7-53 26 40 5 55 44 138 21l2-1c-29-26-58-46-87-46zm-28 68L892 858c20 27 40 50 59 71a270 270 0 0 0 77 377l16 10 54-53-7-54-13 1c-62-4-108-59-108-120 0-29 10-58 29-80l11-10c42 57 75 128 88 262l171-171 15-14v-1l16-16-16 16c-7-37-18-72-39-101-18-24-42-42-75-53-6-5-16-9-30-11a40 40 0 0 1-39 39c11 64 54 39 44 5 14 4 27-1 32-9 22 9 39 24 51 41 15 20 24 44 31 70-17-23-42-2-34 24-19-5-35 5-35 18-19-7-37-16-51-29-25-23-41-58-41-114l1-6a40 40 0 0 1-39-40 40 40 0 0 1 40-40 40 40 0 0 1 40 39c64-11 39-54 5-44 9-32-28-56-42-5-7-31-16-61-33-87l230 189v-38l-275-227zm-4 53a154 154 0 0 1 53 80c-14 0-24 16-19 35-24-7-44 12-30 28-26-7-49-17-66-33-6-5-11-11-15-17l77-93zm213 10-16 2c14 28 34 51 15 106l12 10c13-33 13-59 7-79-5-16-12-28-18-39zm-219 50a15 15 0 1 0 0 30 15 15 0 0 0 0-30zm-78 56 9 9c25 22 57 35 92 43-34 16-12 45 17 37-6 23 10 41 25 32 5 44 21 76 46 98 27 25 64 37 104 45l36-36-141 141a516 516 0 0 0-79-235c-33-50-71-87-109-134zm-55 5a644 644 0 0 1-397 33v30c143 32 266 14 371-22l26-41zm293 134a15 15 0 0 0-15 15 15 15 0 0 0 15 15 15 15 0 0 0 15-15 15 15 0 0 0-15-15zm-30 130a15 15 0 1 0 0 30 15 15 0 0 0 0-30z"/></symbol><path id="i" d="M-52-100H52v200H-52z"/></defs><rect width="239" height="335" x="-120" y="-168" fill="#fff" stroke="#000" rx="12" ry="12"/><use xlink:href="#b" width="104" height="200" x="-52" y="-100"/><use xlink:href="#b" width="104" height="200" x="-52" y="-100" transform="rotate(180)"/><use xlink:href="#c" width="104" height="200" x="-52" y="-100"/><use xlink:href="#c" width="104" height="200" x="-52" y="-100" transform="rotate(180)"/><use xlink:href="#d" width="104" height="200" x="-52" y="-100"/><use xlink:href="#d" width="104" height="200" x="-52" y="-100" transform="rotate(180)"/><use xlink:href="#e" width="104" height="200" x="-52" y="-100"/><use xlink:href="#e" width="104" height="200" x="-52" y="-100" transform="rotate(180)"/><use xlink:href="#f" width="104" height="200" x="-52" y="-100"/><use xlink:href="#f" width="104" height="200" x="-52" y="-100" transform="rotate(180)"/><use xlink:href="#g" width="104" height="200" x="-52" y="-100"/><use xlink:href="#g" width="104" height="200" x="-52" y="-100" transform="rotate(180)"/><use xlink:href="#h" width="70" height="70" x="-122" y="-156"/><use xlink:href="#a" width="58.6" height="58.6" x="-116" y="-81"/><use xlink:href="#a" width="34.4" height="34.4" x="21" y="-97"/><g transform="rotate(180)"><use xlink:href="#h" width="70" height="70" x="-122" y="-156"/><use xlink:href="#a" width="58.6" height="58.6" x="-116" y="-81"/><use xlink:href="#a" width="34.4" height="34.4" x="21" y="-97"/></g><use xlink:href="#i" fill="none" stroke="#44F"/></svg>