<svg xmlns="http://www.w3.org/2000/svg" xmlns:xlink="http://www.w3.org/1999/xlink" class="card" preserveAspectRatio="none" viewBox="-120 -168 240 336"><defs><symbol id="c" preserveAspectRatio="xMinYMid" viewBox="-600 -600 1200 1200"><path fill="red" d="M-400 0C-350 0 0-450 0-500 0-450 350 0 400 0 350 0 0 450 0 500 0 450-350 0-400 0Z"/></symbol><symbol id="b" preserveAspectRatio="xMinYMid" viewBox="-500 -500 1000 1000"><path fill="none" stroke="red" stroke-linecap="square" stroke-miterlimit="1.5" stroke-width="80" d="M-260 430v-860M-50 0v-310a150 150 0 0 1 300 0v620a150 150 0 0 1-300 0Z"/></symbol><path id="a" d="M-52-100H52v200H-52z"/></defs><rect width="239" height="335" x="-120" y="-168" fill="#fff" stroke="#000" rx="12" ry="12"/><use xlink:href="#a" width="104" height="200" fill="#FFC" stroke="#88f"/><use xlink:href="#b" width="70" height="70" x="-122" y="-156"/><use xlink:href="#c" width="58.6" height="58.6" x="-116" y="-81"/><use xlink:href="#c" width="40" height="40" x="-54" y="-98"/><use xlink:href="#c" width="40" height="40" x="14" y="-98"/><use xlink:href="#c" width="40" height="40" x="-54" y="-46"/><use xlink:href="#c" width="40" height="40" x="14" y="-46"/><use xlink:href="#c" width="40" height="40" x="-20" y="-72"/><g transform="rotate(180)"><use xlink:href="#b" width="70" height="70" x="-122" y="-156"/><use xlink:href="#c" width="58.6" height="58.6" x="-116" y="-81"/><use xlink:href="#c" width="40" height="40" x="-54" y="-98"/><use xlink:href="#c" width="40" height="40" x="14" y="-98"/><use xlink:href="#c" width="40" height="40" x="-54" y="-46"/><use xlink:href="#c" width="40" height="40" x="14" y="-46"/><use xlink:href="#c" width="40" height="40" x="-20" y="-72"/></g></svg>